<?xml version="1.0" encoding="UTF-8" standalone="no"?>
<svg width="17px" height="9px" viewBox="0 0 17 9" version="1.1" xmlns="http://www.w3.org/2000/svg" xmlns:xlink="http://www.w3.org/1999/xlink">
    <!-- Generator: Sketch 41.2 (35397) - http://www.bohemiancoding.com/sketch -->
    <title>Page 1</title>
    <desc>Created with Sketch.</desc>
    <defs></defs>
    <g id="Page-1" stroke="none" stroke-width="1" fill="none" fill-rule="evenodd">
        <g id="iPhone-7" transform="translate(-179.000000, -631.000000)" fill="#FFFFFF">
            <g id="01" transform="translate(-12.000000, 0.000000)">
                <g id="DOWN" transform="translate(171.000000, 607.000000)">
                    <path d="M20.1536774,24.9188627 C19.9487742,24.7123587 19.9487742,24.3649838 20.1536774,24.1584798 C20.2545282,24.057629 20.3905967,24.0016008 20.5346692,24.0016008 C20.677141,24.0016008 20.8132095,24.057629 20.9156611,24.1584798 L28.0776675,31.3204862 L35.2396739,24.1584798 C35.3405247,24.057629 35.4765932,24 35.6222665,24 C35.7647383,24 35.899206,24.0560282 36.0000568,24.1552782 C36.1025084,24.256129 36.1585366,24.3921975 36.1585366,24.5378708 C36.1585366,24.6819434 36.1025084,24.8164111 36.0016576,24.9172619 L28.4586593,32.4586593 C28.3578086,32.5595101 28.22174,32.6171391 28.0776675,32.6171391 C27.9335949,32.6171391 27.7975264,32.5611109 27.6982764,32.4586593 L20.1536774,24.9188627 Z" id="Page-1"></path>
                </g>
            </g>
        </g>
    </g>
</svg>