<?xml version="1.0" encoding="UTF-8" standalone="no"?>
<svg width="20px" height="32px" viewBox="0 0 20 32" version="1.1" xmlns="http://www.w3.org/2000/svg" xmlns:xlink="http://www.w3.org/1999/xlink">
    <!-- Generator: Sketch 41.2 (35397) - http://www.bohemiancoding.com/sketch -->
    <title>ARROW</title>
    <desc>Created with Sketch.</desc>
    <defs></defs>
    <g id="Page-1" stroke="none" stroke-width="1" fill="none" fill-rule="evenodd">
        <g id="Desktop-HD-Copy-9" transform="translate(-504.000000, -4247.000000)" fill="#324C74">
            <g id="FORMATION" transform="translate(0.000000, 3249.000000)">
                <g id="Part02" transform="translate(0.000000, 824.274775)">
                    <g id="ARROW" transform="translate(504.000000, 174.000000)">
                        <path d="M19.2823137,14.9835852 L2.02701961,0.366301235 C1.578,-0.106982716 0.833294118,-0.12397037 0.363882353,0.32877037 C-0.105921569,0.781116049 -0.122784314,1.53133827 0.326235294,2.00462222 C0.384666667,2.06585679 0.449764706,2.12116543 0.519960784,2.16857284 L16.7085882,15.884721 L0.519960784,29.6008691 C-0.019254902,29.9663012 -0.162392157,30.7026963 0.200352941,31.2459062 C0.563098039,31.789116 1.29447059,31.9329185 1.83368627,31.5674864 C1.90388235,31.520079 1.96858824,31.4647704 2.02701961,31.4031407 L19.2819216,16.7858568 C19.5881961,16.5298568 19.7450588,16.1347951 19.6987843,15.7365728 C19.6587843,15.4418568 19.5097647,15.1728198 19.2823137,14.9835852 Z" id="Fill-1"></path>
                    </g>
                </g>
            </g>
        </g>
    </g>
</svg>