<?xml version="1.0" encoding="UTF-8" standalone="no"?>
<svg width="322px" height="39px" viewBox="0 0 322 39" version="1.1" xmlns="http://www.w3.org/2000/svg" xmlns:xlink="http://www.w3.org/1999/xlink">
    <!-- Generator: Sketch 41.2 (35397) - http://www.bohemiancoding.com/sketch -->
    <title>Logo Blanc</title>
    <desc>Created with Sketch.</desc>
    <defs>
        <polygon id="logo-nt" points="0.00366351419 38.2279741 36.4986361 38.2279741 36.4986361 0.574295669 0.00366351419 0.574295669"></polygon>
    </defs>
    <g id="Page-1" stroke="none" stroke-width="1" fill="none" fill-rule="evenodd">
        <g id="Desktop-HD-Copy-9" transform="translate(-144.000000, -24.000000)">
            <g id="FIRST-LAME" transform="translate(-1.000000, -15.000000)">
                <g id="HEADER" transform="translate(0.000000, 39.000000)">
                    <g id="Logo-Blanc" transform="translate(145.000000, 0.000000)">
                        <g>
                            <g id="Group-3" transform="translate(0.000000, 0.222120)">
                                <mask id="mask-2" fill="white">
                                    <use xlink:href="#path-1"></use>
                                </mask>
                                <g id="Clip-2"></g>
                                <path d="M17.6721553,0.574295669 C10.0886809,0.574295669 3.28011946,5.08758586 0.324619214,12.0729517 L0.125515182,12.5444301 C0.125515182,12.5444301 0.0506520657,12.7132703 0.0267595819,12.7769836 C0.00366351419,12.8399004 0.00366351419,13.005555 0.00366351419,13.005555 C0.0418914883,13.2580189 0.297541065,13.5200398 0.707695371,13.694455 C0.925116974,13.7860428 1.13138875,13.8306421 1.30819313,13.8306421 C1.46588352,13.8306421 1.59569935,13.7908213 1.69445495,13.7207367 C1.69445495,13.7207367 1.78126431,13.6578198 1.83462419,13.560657 C1.90470881,13.3942061 2.13965157,12.8399004 2.13965157,12.8399004 C4.78454953,6.5856446 10.881115,2.54383275 17.6721553,2.54383275 C26.9671279,2.54383275 34.5290991,10.1058039 34.5290991,19.4007765 C34.5290991,28.6965455 26.9671279,36.2585167 17.6721553,36.2585167 C11.089776,36.2585167 5.06807367,32.3879343 2.33158785,26.3996814 L2.00665007,25.6892782 C1.864888,25.3906222 1.39898457,25.3460229 0.877332006,25.5865406 C0.486291687,25.7641414 0.235420607,26.0213838 0.200378298,26.2905724 C0.200378298,26.2905724 0.178078646,26.4028671 0.232234943,26.5446292 C0.256923843,26.597989 0.540447984,27.2176008 0.540447984,27.2176008 C2.01939273,30.4558288 4.37917372,33.2018716 7.36414136,35.1578696 C10.4287506,37.1664311 13.9927128,38.2280538 17.6721553,38.2280538 C28.0526431,38.2280538 36.4986361,29.7820607 36.4986361,19.4007765 C36.4986361,9.0202887 28.0526431,0.574295669 17.6721553,0.574295669" id="Fill-1" fill="#FFFFFF" mask="url(#mask-2)"></path>
                            </g>
                            <path d="M15.7144848,7.73423594 L15.0168243,7.89590841 C8.5825784,9.37883524 4.55510204,15.8210453 6.03882529,22.2552912 C7.29955202,27.7234843 12.0979592,31.5422997 17.7063216,31.5422997 C18.608661,31.5422997 19.5133897,31.4379691 20.3982081,31.2340866 C22.9371827,30.6487208 25.165555,29.2908313 26.8436038,27.3085515 C28.4659034,25.3907815 29.4630164,22.9641015 29.6509706,20.4745047 L29.6868094,20.0038228 L29.7114983,19.7011847 C29.7314087,19.370672 29.3459433,19.1078547 28.7741165,19.0608661 C28.3440518,19.028213 27.8662021,19.1413041 27.8120458,19.4049179 L27.6878049,20.3247785 C27.5293181,22.4058138 26.6962668,24.4334893 25.3399701,26.036675 C23.9374813,27.6924241 22.0754604,28.8265207 19.9561971,29.3147237 C14.5843703,30.5555401 9.19820806,27.1882927 7.95739174,21.8132802 C6.71816824,16.436675 10.0838228,11.0544948 15.4596317,9.81447486 L16.2202091,9.6384669 C16.5411648,9.55802887 16.6749627,9.11044301 16.5443504,8.55056247 C16.4121453,7.99147835 16.0895968,7.64264808 15.7144848,7.73423594 L15.7144848,7.73423594 Z" id="Fill-4" fill="#FFFFFF"></path>
                            <path d="M0.12543554,12.7665505 C0.12543554,12.7665505 0.049776008,12.9353907 0.0274763564,12.999104 C-0.0131408661,13.1106023 0.00358387257,13.2276755 0.00358387257,13.2276755" id="Fill-6" fill="#FFFFFF"></path>
                            <path d="M0.19998009,26.5128522 C0.19998009,26.5128522 0.172901941,26.6020508 0.232633151,26.7661125 C0.256525635,26.8194724 0.540049776,27.4398805 0.540049776,27.4398805" id="Fill-8" fill="#FFFFFF"></path>
                            <path d="M17.9755898,23.7555002 C20.4564261,23.7555002 22.4745445,21.7373818 22.4745445,19.257342 C22.4745445,16.7765057 20.4564261,14.7575908 17.9755898,14.7575908 L17.195102,14.7583873 C16.8629965,14.7639622 16.6312394,15.169338 16.6312394,15.7451468 C16.6312394,16.3201593 16.8629965,16.7255351 17.2516476,16.7319064 L17.9755898,16.7279243 C19.3701145,16.7279243 20.5050075,17.8628173 20.5050075,19.257342 C20.5050075,20.6518666 19.3701145,21.7867596 17.9755898,21.7867596 L17.3480139,21.7867596 C17.342439,21.7859632 17.3368641,21.7843703 17.3312892,21.7843703 C16.9426381,21.7843703 16.6240717,22.1029368 16.6240717,22.4923843 L16.6240717,23.0458935 C16.6240717,23.4329517 16.9394525,23.7491289 17.3257143,23.7523146 L17.3257143,23.7555002 L17.9755898,23.7555002 Z" id="Fill-10" fill="#FFFFFF"></path>
                            <path d="M69.3653758,26.0274365 C72.5016625,26.0274365 75.0573619,23.3108611 75.0573619,19.699114 C75.0573619,16.1797511 72.5016625,13.55556 69.3653758,13.55556 C66.2290891,13.55556 63.6741862,16.1797511 63.6741862,19.699114 C63.6741862,23.3108611 66.2290891,26.0274365 69.3653758,26.0274365 M69.3653758,11.641772 C73.6341663,11.641772 77.0898158,15.0998109 77.0898158,19.699114 C77.0898158,24.3915978 73.6341663,27.9109607 69.3653758,27.9109607 C65.0973818,27.9109607 61.6409358,24.3915978 61.6409358,19.699114 C61.6409358,15.0998109 65.0973818,11.641772 69.3653758,11.641772" id="Fill-12" fill="#FFFFFF"></path>
                            <path d="M268.2977,26.0274365 C271.433987,26.0274365 273.989686,23.3108611 273.989686,19.699114 C273.989686,16.1797511 271.433987,13.55556 268.2977,13.55556 C265.161414,13.55556 262.606511,16.1797511 262.606511,19.699114 C262.606511,23.3108611 265.161414,26.0274365 268.2977,26.0274365 M268.2977,11.641772 C272.566491,11.641772 276.02214,15.0998109 276.02214,19.699114 C276.02214,24.3915978 272.566491,27.9109607 268.2977,27.9109607 C264.029706,27.9109607 260.57326,24.3915978 260.57326,19.699114 C260.57326,15.0998109 264.029706,11.641772 268.2977,11.641772" id="Fill-14" fill="#FFFFFF"></path>
                            <path d="M53.2809557,11.6420906 C49.8253061,11.6420906 47.9672673,14.1428372 47.4440219,15.5628472 L47.3858835,15.5628472 C47.3858835,15.5628472 47.4440219,15.0069487 47.4440219,14.3276058 L47.4440219,12.0283524 L47.4440219,12.0124241 L47.4440219,11.9526929 L47.4432255,11.9526929 C47.4400398,11.7273071 47.005993,11.5441314 46.4715978,11.5441314 C45.9364062,11.5441314 45.5031558,11.7273071 45.4991737,11.9526929 L45.4983773,11.9526929 L45.4983773,12.0124241 L45.4983773,12.0283524 L45.4983773,27.5329816 L45.4983773,27.5401493 L45.4983773,27.6094375 L45.4991737,27.6094375 C45.5031558,27.8388054 45.9427775,28.0243703 46.4859333,28.0243703 C47.0290891,28.0243703 47.4687108,27.8388054 47.4726929,27.6094375 L47.4734893,27.6094375 L47.4734893,27.5401493 L47.4734893,27.5329816 L47.4734893,20.1008263 C47.4734893,19.3593629 47.5316277,18.6497561 47.7052464,18.0014734 C48.3734395,15.4394027 50.5221702,13.617999 53.0197312,13.617999 C55.8366551,13.617999 56.1854853,15.778676 56.1854853,18.2173021 L56.1854853,27.5329816 L56.1846889,27.5329816 L56.1846889,27.6094375 L56.1854853,27.6094375 C56.1894674,27.8388054 56.6290891,28.0243703 57.1722449,28.0243703 C57.7154007,28.0243703 58.1550224,27.8388054 58.1590045,27.6094375 L58.1598009,27.6094375 L58.1598009,27.5401493 L58.1598009,27.5329816 L58.1598009,17.6614037 C58.1598009,13.8338278 56.8823494,11.6420906 53.2809557,11.6420906" id="Fill-16" fill="#FFFFFF"></path>
                            <path d="M108.140886,11.5160976 C107.573041,11.5160976 107.227397,11.6490991 107.162887,11.8880239 L107.111916,12.0122648 L107.11112,12.0122648 L107.106341,12.0266003 L107.104749,12.029786 L103.074087,23.4042011 C102.784191,24.2061921 102.551638,25.2558686 102.551638,25.2558686 L102.493499,25.2558686 C102.493499,25.2558686 102.260946,24.1751319 101.999721,23.4042011 L97.9348133,12.0122648 L97.8511896,11.8179393 C97.7396914,11.5208761 97.3207765,11.4332703 96.7497461,11.4332703 C96.1779194,11.4332703 95.8378497,11.6347636 95.8338676,11.9079343 L95.8338676,11.9214734 L95.8434246,12.0122648 L101.447805,27.5376008 L101.447805,27.5376008 L101.448601,27.53999 L101.448601,27.53999 L101.490811,27.6291887 C101.638945,27.9469587 101.932026,28.071996 102.522967,28.071996 C103.113907,28.071996 103.45557,27.920677 103.55114,27.6371528 L103.595739,27.53999 L103.597332,27.53999 L109.16667,12.029786 L109.169059,12.029786 L109.185784,11.9541264 L109.185784,11.9374017 C109.173041,11.7008661 108.708731,11.5160976 108.140886,11.5160976" id="Fill-18" fill="#FFFFFF"></path>
                            <path d="M93.0873469,11.9396317 C93.0833649,11.7102638 92.6437432,11.5246989 92.1005874,11.5246989 C91.5574316,11.5246989 91.1178099,11.7102638 91.1138278,11.9396317 L91.1130314,11.9396317 L91.1130314,12.0121055 L91.1130314,12.0121055 L91.1130314,19.452225 C91.1130314,22.8170831 89.05111,25.9350523 85.7109408,25.9350523 C82.8948133,25.9350523 82.5459831,23.7735789 82.5459831,21.3349527 L82.5459831,12.0121055 L82.5459831,12.0121055 L82.5459831,11.9396317 L82.5451867,11.9396317 C82.5412046,11.7102638 82.1015829,11.5246989 81.5584271,11.5246989 C81.0152713,11.5246989 80.5756496,11.7102638 80.5716675,11.9396317 L80.5708711,11.9396317 L80.5708711,12.0121055 L80.5708711,12.0160876 L80.5708711,21.8908512 C80.5708711,25.9350523 82.0235341,27.9109607 85.4505127,27.9109607 C88.6736088,27.9109607 90.5905824,25.5025983 91.1711697,23.9902041 L91.2293081,23.9902041 C91.2293081,23.9902041 91.1711697,24.5461025 91.1711697,25.2246491 L91.1711697,27.5406272 L91.1711697,27.5406272 L91.1711697,27.6115082 L91.1719662,27.6115082 C91.1759482,27.8360976 91.6028273,28.016884 92.1300548,28.016884 C92.6564858,28.016884 93.0833649,27.8360976 93.0873469,27.6115082 L93.0881434,27.6115082 L93.0881434,27.5406272 L93.0881434,27.5374415 L93.0881434,12.0160876 L93.0881434,12.0121055 L93.0881434,11.9396317 L93.0873469,11.9396317 Z" id="Fill-20" fill="#FFFFFF"></path>
                            <path d="M113.031598,18.1555002 C113.495908,15.0375311 115.615968,13.4016924 118.055391,13.4016924 C120.232792,13.4016924 122.091628,14.9140866 122.207904,18.1555002 L113.031598,18.1555002 Z M124.211687,18.803783 C124.211687,14.9451468 122.149766,11.6424092 118.113529,11.6424092 C114.164102,11.6424092 110.911538,14.6982578 110.911538,19.7921354 C110.911538,24.5770035 114.192773,27.9108014 118.549169,27.9108014 C121.778636,27.9108014 123.877193,25.8225983 123.944092,25.7556994 L123.944092,25.7556994 L124.034883,25.6720757 C124.218059,25.540667 124.148771,25.1639622 123.900289,24.7227476 C123.651807,24.2823295 123.299791,23.9820806 123.111837,24.0991538 L123.050513,24.1445495 C123.050513,24.1445495 121.278487,26.0272773 118.607307,26.0272773 C115.587297,26.0272773 113.031598,23.8666003 112.944788,19.8845197 L124.153549,19.8845197 C124.153549,19.8845197 124.211687,19.1741165 124.211687,18.803783 L124.211687,18.803783 Z" id="Fill-22" fill="#FFFFFF"></path>
                            <path d="M132.003982,25.7199403 L132.003982,25.7191439 L131.933897,25.7191439 L131.933897,25.7183474 C131.933897,25.7183474 131.701344,25.7494077 131.440119,25.7494077 C130.685117,25.7494077 129.813838,25.4411946 129.813838,23.4039622 L129.813838,5.83820806 L129.813838,5.83820806 L129.813838,5.76175212 L129.813041,5.76175212 C129.809059,5.53238427 129.369438,5.34681931 128.826282,5.34681931 C128.283126,5.34681931 127.843504,5.53238427 127.839522,5.76175212 L127.838726,5.76175212 L127.838726,5.83820806 L127.838726,23.8666799 C127.838726,27.2625983 129.987456,27.663992 131.207566,27.663992 C131.554007,27.663992 131.871777,27.6130214 131.923544,27.6042608 L131.92434,27.6042608 C131.928323,27.6034644 131.933897,27.602668 131.933897,27.602668 L131.933897,27.6018716 L132.001593,27.5899253 C132.246093,27.5270085 132.399801,27.1805674 132.399801,26.6621005 C132.399801,26.1436336 132.222997,25.7239223 132.003982,25.7199403" id="Fill-24" fill="#FFFFFF"></path>
                            <path d="M184.576765,25.7200996 L184.576765,25.7193031 L184.505884,25.7193031 L184.505884,25.7185067 C184.505884,25.7185067 184.244659,25.7806272 183.838487,25.7806272 C182.734654,25.7806272 180.556456,25.3179094 180.556456,21.675102 L180.556456,13.9570333 L184.215192,13.9570333 L184.215192,13.9044699 L184.215988,13.9554405 L184.269348,13.9554405 L184.269348,13.9546441 C184.43102,13.9514584 184.561633,13.5596217 184.561633,13.0761971 C184.560836,12.5927725 184.430224,12.2017322 184.268552,12.1985465 L184.265366,12.1977501 L184.215192,12.1977501 L184.215192,12.1977501 L180.556456,12.1977501 L180.556456,7.72109507 L180.554863,7.72109507 L180.554863,7.64702837 L180.554067,7.64702837 C180.550881,7.42323544 180.117631,7.2432454 179.583235,7.2432454 C179.04884,7.2432454 178.61559,7.42323544 178.611608,7.64702837 L178.611608,7.64702837 L178.611608,7.72109507 L178.610015,7.72109507 L178.610015,12.1977501 L176.667556,12.1977501 L176.667556,12.1969537 L176.612603,12.1969537 L176.612603,12.1977501 C176.448542,12.2009358 176.31554,12.5927725 176.314744,13.0769935 C176.314744,13.5612145 176.447745,13.9530513 176.611807,13.9570333 L176.611807,13.9570333 L176.665963,13.9570333 L176.665963,13.9570333 L178.581344,13.9570333 L178.581344,21.8909308 C178.581344,27.0771926 181.979652,27.6641513 183.663275,27.6641513 C184.186521,27.6641513 184.505884,27.6020309 184.505884,27.6020309 L184.634903,27.5805276 C184.876217,27.5231857 184.960637,27.1783375 184.960637,26.660667 C184.960637,26.1429965 184.788611,25.7240816 184.576765,25.7200996" id="Fill-26" fill="#FFFFFF"></path>
                            <path d="M258.465545,25.7200996 L258.465545,25.7193031 L258.39785,25.7193031 L258.39785,25.7185067 C258.39785,25.7185067 258.135829,25.7806272 257.730453,25.7806272 C256.625824,25.7806272 254.448422,25.3179094 254.448422,21.675102 L254.448422,13.9570333 L258.107158,13.9570333 L258.107158,13.9554405 L258.158128,13.9554405 L258.158128,13.9546441 C258.319801,13.9514584 258.450413,13.5596217 258.450413,13.0761971 C258.449617,12.5927725 258.319004,12.2017322 258.157332,12.1985465 L258.154146,12.1977501 L258.107158,12.1977501 L258.107158,12.1977501 L254.448422,12.1977501 L254.448422,7.72109507 L254.443644,7.72109507 L254.443644,7.64702837 L254.442847,7.64702837 C254.439662,7.42323544 254.006411,7.2432454 253.472016,7.2432454 C252.937621,7.2432454 252.50437,7.42323544 252.500388,7.64702837 L252.500388,7.64702837 L252.500388,7.72109507 L252.501981,7.72109507 L252.501981,12.1977501 L250.57784,12.1977501 L250.57784,12.1969537 L250.523683,12.1969537 L250.523683,12.1977501 C250.359622,12.2009358 250.22662,12.5927725 250.225824,13.0769935 C250.225824,13.5612145 250.358825,13.9530513 250.522887,13.9570333 L250.522887,13.9570333 L250.577043,13.9570333 L250.577043,13.9570333 L252.47331,13.9570333 L252.47331,21.8909308 C252.47331,27.0771926 255.871618,27.6641513 257.555241,27.6641513 C258.07769,27.6641513 258.39785,27.6020309 258.39785,27.6020309 L258.465545,27.6020309 L258.465545,27.6012344 C258.677392,27.5980488 258.849418,27.1783375 258.849418,26.660667 C258.849418,26.1429965 258.677392,25.7240816 258.465545,25.7200996" id="Fill-28" fill="#FFFFFF"></path>
                            <path d="M195.184151,11.9698955 L195.103713,11.9507815 L195.103713,11.9507815 C195.103713,11.9507815 194.726212,11.8583972 194.32004,11.8583972 C192.025565,11.8583972 190.399283,13.6487407 189.702419,15.9949826 L189.645077,15.9949826 C189.645077,15.9949826 189.702419,15.4390841 189.702419,14.7597412 L189.702419,12.0200697 L189.702419,12.0121055 L189.702419,11.9483922 L189.702419,11.9483922 C189.698437,11.7341563 189.265187,11.561334 188.729995,11.561334 C188.194803,11.561334 187.760757,11.7341563 187.757571,11.9483922 L187.756775,11.9483922 L187.756775,12.0121055 L187.756775,12.0200697 L187.756775,27.5406272 L187.756775,27.6170831 L187.757571,27.6170831 C187.760757,27.8456546 188.201175,28.0312195 188.744331,28.0312195 C189.28669,28.0312195 189.727108,27.8456546 189.730294,27.6170831 L189.73109,27.6170831 L189.73109,27.5406272 L189.731887,27.5406272 L189.731887,20.9956794 C189.731887,20.0081234 189.848163,18.958447 190.138059,17.970891 C190.777581,15.6859731 192.316257,13.9569537 194.378178,13.9569537 C194.755679,13.9569537 195.103713,14.0190742 195.103713,14.0190742 L195.103713,14.0190742 L195.17778,14.0246491 C195.417501,14.020667 195.615012,13.5507815 195.615012,12.9829368 C195.615012,12.4150921 195.447765,12.0272374 195.184151,11.9698955" id="Fill-30" fill="#FFFFFF"></path>
                            <path d="M206.658995,20.3474764 C206.658995,23.0329915 204.975371,26.1199004 202.187118,26.1199004 C200.00892,26.1199004 198.934555,24.6385665 198.934555,23.1874963 C198.934555,19.7605177 203.522708,19.6681334 205.816386,19.6681334 L206.658995,19.6681334 L206.658995,20.3474764 Z M203.173878,11.6418517 C199.902997,11.6418517 197.989209,13.3891887 197.977262,13.4003385 L197.975669,13.3979492 L197.901603,13.4704231 C197.704888,13.6257242 197.785326,13.9920757 198.041772,14.434883 C198.298218,14.876894 198.658198,15.1580289 198.846949,15.0529019 L198.846949,15.0536984 L198.908273,15.0075062 L198.907476,15.0059134 C198.921812,14.9931707 200.630124,13.5245794 203.02893,13.5245794 C205.120319,13.5245794 206.658995,14.543992 206.658995,17.5385167 L206.658995,17.9399104 L205.845854,17.9399104 C203.319622,17.9399104 196.902101,18.0633549 196.902101,23.3109408 C196.902101,26.3978497 199.428333,27.9110403 201.867755,27.9110403 C205.526491,27.9110403 206.745804,24.5461822 206.745804,24.5461822 L206.803942,24.5461822 C206.803942,24.5461822 206.745804,25.0710204 206.745804,25.8427476 L206.745804,27.5351319 L206.745007,27.5351319 L206.745007,27.6084022 L206.745804,27.6084022 C206.74899,27.8274166 207.170294,28.0050174 207.689557,28.0050174 C208.20882,28.0050174 208.629328,27.8274166 208.63331,27.6084022 L208.634107,27.6084022 L208.634107,27.5399104 L208.634107,27.5351319 L208.634107,17.5998407 C208.634107,13.7101444 206.688462,11.6418517 203.173878,11.6418517 L203.173878,11.6418517 Z" id="Fill-32" fill="#FFFFFF"></path>
                            <path d="M214.741424,5.83836735 L213.612106,5.83836735 C213.362827,5.83836735 213.161334,6.04065704 213.161334,6.28993529 L213.161334,8.01975112 C213.161334,8.26425087 213.358845,8.46255849 213.603345,8.46255849 L214.745406,8.46255849 C214.993091,8.46255849 215.193788,8.26186162 215.193788,8.01417621 L215.193788,6.28993529 C215.193788,6.04065704 214.990702,5.83836735 214.741424,5.83836735" id="Fill-34" fill="#FFFFFF"></path>
                            <path d="M215.1644,12.0124241 L215.1644,11.9359681 L215.163604,11.9359681 C215.159622,11.7066003 214.72,11.5210353 214.176844,11.5210353 C213.634485,11.5210353 213.194067,11.7066003 213.190881,11.9359681 L213.190085,11.9359681 L213.190085,12.0124241 L213.189288,12.0124241 L213.189288,28.0339273 C213.189288,31.5843504 210.982419,32.0168044 209.850712,32.0168044 C209.516217,32.0168044 209.274107,31.9921155 209.222339,31.9865406 L209.222339,31.9857442 L209.142698,31.9857442 L209.142698,31.9865406 C208.90218,31.9897262 208.707058,32.3958985 208.707058,32.8976406 C208.707058,33.3985864 208.752454,33.6837033 209.046332,33.7553808 C209.046332,33.7553808 209.56002,33.8995321 210.082469,33.8995321 C211.708751,33.8995321 215.1644,33.2823096 215.1644,28.127108 L215.1644,12.0124241 L215.1644,12.0124241 Z" id="Fill-36" fill="#FFFFFF"></path>
                            <path d="M248.248084,24.447108 C248.000398,23.9979293 247.657939,23.7120159 247.481931,23.8051966 L247.481135,23.8044002 C247.481135,23.8044002 245.709905,26.0271976 242.748034,26.0271976 C239.524938,26.0271976 236.998706,23.4348631 236.998706,19.7920557 C236.998706,16.0871279 239.49547,13.5561175 242.689895,13.5561175 C245.332404,13.5561175 246.958686,15.4388452 246.958686,15.4388452 L246.958686,15.4388452 L247.007267,15.488223 C247.192832,15.6331707 247.575112,15.3361075 247.856247,14.90445 C248.137382,14.4727924 248.231359,14.1295371 248.044998,13.936008 L247.976506,13.8619413 L247.974913,13.8643305 C247.970134,13.8587556 246.198905,11.6423295 242.631757,11.6423295 C238.333499,11.6423295 234.965455,15.0071877 234.965455,19.7920557 C234.965455,24.6071877 238.304828,27.9107218 242.631757,27.9107218 C246.289696,27.9107218 248.256048,25.5541264 248.318168,25.4784669 L248.318168,25.4784669 L248.383474,25.4123644 C248.558686,25.2331707 248.495769,24.8962867 248.248084,24.447108" id="Fill-38" fill="#FFFFFF"></path>
                            <path d="M281.260727,5.83836735 L280.101145,5.83836735 C279.851867,5.83836735 279.649577,6.04065704 279.649577,6.28993529 L279.649577,8.01417621 C279.649577,8.26186162 279.850274,8.46255849 280.097959,8.46255849 L281.263116,8.46255849 C281.510005,8.46255849 281.710702,8.26186162 281.710702,8.01417621 L281.710702,6.28834246 C281.710702,6.03986063 281.509209,5.83836735 281.260727,5.83836735" id="Fill-40" fill="#FFFFFF"></path>
                            <path d="M281.681633,11.9366053 L281.680836,11.9366053 C281.676854,11.7072374 281.237232,11.5216725 280.694077,11.5216725 C280.151717,11.5216725 279.711299,11.7072374 279.707317,11.9366053 L279.706521,11.9366053 L279.706521,12.0122648 L279.706521,27.53999 L279.707317,27.53999 L279.707317,27.616446 L279.708113,27.616446 C279.711299,27.8458138 280.151717,28.0313788 280.694077,28.0313788 C281.237232,28.0313788 281.676854,27.8458138 281.680836,27.616446 L281.681633,27.616446 L281.681633,27.53999 L281.681633,27.53999 L281.681633,12.0122648 L281.681633,12.0122648 L281.681633,11.9366053 Z" id="Fill-42" fill="#FFFFFF"></path>
                            <path d="M143.430244,18.1555002 C143.894555,15.0375311 146.014614,13.4016924 148.454037,13.4016924 C150.631439,13.4016924 152.490274,14.9140866 152.606551,18.1555002 L143.430244,18.1555002 Z M154.610333,18.803783 C154.610333,14.9451468 152.548412,11.6424092 148.512175,11.6424092 C144.562748,11.6424092 141.310184,14.6982578 141.310184,19.7921354 C141.310184,24.5770035 144.591419,27.9108014 148.947815,27.9108014 C152.131887,27.9108014 154.216108,25.8815331 154.337163,25.7612743 L154.337163,25.7612743 L154.408044,25.6943753 C154.595998,25.5279243 154.539452,25.1647586 154.290971,24.7235441 C154.042489,24.2831259 153.697641,23.9757093 153.510483,24.0919861 L153.449159,24.1445495 C153.449159,24.1445495 151.677133,26.0272773 149.005953,26.0272773 C145.985943,26.0272773 143.430244,23.8666003 143.343435,19.8845197 L154.552195,19.8845197 C154.552195,19.8845197 154.610333,19.1741165 154.610333,18.803783 L154.610333,18.803783 Z" id="Fill-44" fill="#FFFFFF"></path>
                            <path d="M221.030005,18.1555002 C221.494316,15.0375311 223.614375,13.4016924 226.053798,13.4016924 C228.231996,13.4016924 230.090831,14.9140866 230.206312,18.1555002 L221.030005,18.1555002 Z M232.210095,18.803783 C232.210095,14.9451468 230.148173,11.6424092 226.111936,11.6424092 C222.162509,11.6424092 218.909945,14.6982578 218.909945,19.7921354 C218.909945,24.5770035 222.19118,27.9108014 226.547576,27.9108014 C229.804121,27.9108014 231.913828,25.7851667 231.946481,25.7525137 L232.000637,25.7126929 C232.183813,25.5812842 232.136028,25.1711299 231.888342,24.7307118 C231.639861,24.2894973 231.287845,23.9900448 231.09989,24.1063216 L231.03777,24.1517173 L231.039363,24.1541065 C230.942997,24.254455 229.201234,26.0272773 226.605714,26.0272773 C223.584908,26.0272773 221.030005,23.8666003 220.943196,19.8845197 L232.151956,19.8845197 C232.151956,19.8845197 232.210095,19.1741165 232.210095,18.803783 L232.210095,18.803783 Z" id="Fill-46" fill="#FFFFFF"></path>
                            <path d="M297.708711,18.1555002 C298.173021,15.0375311 300.293081,13.4016924 302.732504,13.4016924 C304.909905,13.4016924 306.768741,14.9140866 306.885017,18.1555002 L297.708711,18.1555002 Z M308.8888,18.803783 C308.8888,14.9451468 306.826879,11.6424092 302.790642,11.6424092 C298.841215,11.6424092 295.588651,14.6982578 295.588651,19.7921354 C295.588651,24.5770035 298.869886,27.9108014 303.226282,27.9108014 C306.507516,27.9108014 308.626779,25.749328 308.626779,25.749328 L308.625187,25.7461424 L308.684121,25.6903932 C308.8888,25.4960677 308.820309,25.1639622 308.571827,24.7227476 C308.323345,24.2823295 307.971329,23.9820806 307.783375,24.0991538 L307.722051,24.1445495 L307.723644,24.1485316 C307.685416,24.1883524 305.926929,26.0272773 303.28442,26.0272773 C300.26441,26.0272773 297.708711,23.8666003 297.621901,19.8845197 L308.830662,19.8845197 C308.830662,19.8845197 308.8888,19.1741165 308.8888,18.803783 L308.8888,18.803783 Z" id="Fill-48" fill="#FFFFFF"></path>
                            <path d="M139.177143,25.7189049 L139.177143,25.7181085 L139.103873,25.7181085 L139.103873,25.7189049 C139.098298,25.7197013 138.86893,25.7499652 138.611687,25.7499652 C137.855889,25.7499652 136.985406,25.4409557 136.985406,23.4037232 L136.985406,5.83796914 L136.985406,5.83796914 L136.985406,5.76230961 L136.985406,5.76230961 C136.981424,5.53294176 136.541005,5.3473768 135.998646,5.3473768 C135.45549,5.3473768 135.015869,5.53294176 135.011887,5.76230961 L135.01109,5.76230961 L135.01109,5.83796914 L135.010294,5.83796914 L135.010294,23.866441 C135.010294,27.2623594 137.159024,27.6645495 138.378337,27.6645495 C138.756635,27.6645495 139.105465,27.6024291 139.105465,27.6024291 L139.105465,27.6016327 L139.174754,27.58889 C139.418457,27.5259731 139.572962,27.1795321 139.572962,26.6610652 C139.572962,26.1425983 139.396157,25.722887 139.177143,25.7189049" id="Fill-50" fill="#FFFFFF"></path>
                            <path d="M159.718785,15.9328621 C159.718785,14.2038427 161.141981,13.5252962 162.623315,13.5252962 C165.032474,13.5252962 166.282051,14.9453061 166.282051,14.9453061 L166.28444,14.941324 L166.344171,14.9922947 C166.528143,15.1221105 166.884141,14.8011548 167.13103,14.3599403 C167.378716,13.9179293 167.408183,13.6375908 167.244121,13.4090194 L167.166869,13.3230065 L167.166869,13.3238029 C167.021125,13.1589447 165.592354,11.641772 162.680657,11.641772 C160.038148,11.641772 157.686332,13.1549627 157.686332,15.9328621 C157.686332,20.9956794 165.555719,20.1618318 165.555719,23.5577501 C165.555719,25.1935889 164.191458,26.0274365 162.623315,26.0274365 C160.003106,26.0274365 158.404699,24.2984171 158.278865,24.1582479 L158.279662,24.1574515 L158.223912,24.1017023 C158.041533,23.9647188 157.663235,24.233111 157.367765,24.6472474 C157.071498,25.0605874 156.970353,25.419771 157.146361,25.6045396 L157.19335,25.6555102 L157.192554,25.657103 C157.192554,25.657103 159.050592,27.9109607 162.593848,27.9109607 C165.526252,27.9109607 167.588173,26.089557 167.588173,23.5577501 C167.588173,18.4336088 159.718785,19.3598407 159.718785,15.9328621" id="Fill-52" fill="#FFFFFF"></path>
                            <path d="M293.859472,11.9722847 L293.790184,11.9563564 L293.790184,11.9507815 C293.790184,11.9507815 293.412683,11.8576008 293.006511,11.8576008 C290.712036,11.8576008 289.085754,13.6487407 288.389686,15.9949826 L288.331548,15.9949826 C288.331548,15.9949826 288.389686,15.4390841 288.389686,14.7597412 L288.389686,12.0121055 L288.387297,12.0121055 L288.387297,11.9523743 L288.387297,11.9523743 C288.383315,11.7381384 287.950065,11.5645197 287.414873,11.5645197 C286.879681,11.5645197 286.445635,11.7381384 286.442449,11.9523743 L286.441653,11.9523743 L286.441653,12.0232554 L286.443245,12.0232554 L286.443245,27.5406272 L286.441653,27.5406272 L286.441653,27.6170831 L286.442449,27.6170831 C286.445635,27.8456546 286.886053,28.0312195 287.429209,28.0312195 C287.971568,28.0312195 288.411986,27.8456546 288.415172,27.6170831 L288.415968,27.6170831 L288.415968,27.5406272 L288.418357,27.5406272 L288.418357,20.9956794 C288.418357,20.0081234 288.534634,18.958447 288.825326,17.9700946 C289.464052,15.6859731 291.002728,13.9569537 293.064649,13.9569537 C293.397551,13.9569537 293.707357,14.0055351 293.775849,14.0166849 L293.775849,14.020667 L293.853101,14.0270383 C294.092822,14.0230562 294.290333,13.5531707 294.290333,12.985326 C294.290333,12.4174813 294.123086,12.0296267 293.859472,11.9722847" id="Fill-54" fill="#FFFFFF"></path>
                            <path d="M313.996456,15.9328621 C313.996456,14.2038427 315.419652,13.5252962 316.900986,13.5252962 C319.310144,13.5252962 320.559721,14.9453061 320.559721,14.9453061 L320.560518,14.9429169 L320.620249,14.9930911 C320.810592,15.1276854 321.161812,14.7971727 321.406312,14.3607367 C321.653997,13.9187257 321.684261,13.6375908 321.519403,13.4098158 L321.458079,13.341324 C321.458079,13.341324 320.036476,11.641772 316.958328,11.641772 C314.315819,11.641772 311.964002,13.1549627 311.964002,15.9328621 C311.964002,20.9956794 319.83339,20.1618318 319.83339,23.5577501 C319.83339,25.1935889 318.469129,26.0274365 316.900986,26.0274365 C314.170075,26.0274365 312.544589,24.1447088 312.544589,24.1447088 L312.543793,24.1463016 L312.48884,24.0945346 C312.305665,23.9583474 311.927367,24.2259433 311.631896,24.6400796 C311.33563,25.054216 311.234485,25.4126033 311.410493,25.5973718 L311.468631,25.6602887 L311.470224,25.657103 C311.470224,25.657103 313.329059,27.9109607 316.871518,27.9109607 C319.803922,27.9109607 321.865844,26.089557 321.865844,23.5577501 C321.865844,18.4336088 313.996456,19.3598407 313.996456,15.9328621" id="Fill-56" fill="#FFFFFF"></path>
                        </g>
                    </g>
                </g>
            </g>
        </g>
    </g>
</svg>