<?xml version="1.0" encoding="UTF-8" standalone="no"?>
<svg width="66px" height="66px" viewBox="0 0 66 66" version="1.1" xmlns="http://www.w3.org/2000/svg" xmlns:xlink="http://www.w3.org/1999/xlink">
    <!-- Generator: Sketch 41.2 (35397) - http://www.bohemiancoding.com/sketch -->
    <title>Social</title>
    <desc>Created with Sketch.</desc>
    <defs>
        <polygon id="path-1" points="6.48925091 0.00445032817 3.8787879e-05 0.00445032817 3.8787879e-05 26.8954035 6.48925091 26.8954035 6.48925091 0.00445032817"></polygon>
        <polygon id="path-3" points="0.0523830303 18.5752828 17.4993455 18.5752828 17.4993455 0.167390387 0.0523830303 0.167390387"></polygon>
    </defs>
    <g id="Page-1" stroke="none" stroke-width="1" fill="none" fill-rule="evenodd">
        <g id="Desktop-HD-Copy-9" transform="translate(-1103.000000, -6728.000000)">
            <g id="FOOTER" transform="translate(0.000000, 6584.000000)">
                <g id="Group-2" transform="translate(963.000000, 144.000000)">
                    <g id="Social" transform="translate(140.000000, 0.000000)">
                        <ellipse id="Oval-2-Copy" fill="#1063FF" cx="33" cy="32.9239631" rx="33" ry="32.9239631"></ellipse>
                        <g id="ICON" transform="translate(19.000000, 18.956221)">
                            <g id="Group-3" transform="translate(0.000000, 0.189042)">
                                <mask id="mask-2" fill="white">
                                    <use xlink:href="#path-1"></use>
                                </mask>
                                <g id="Clip-2"></g>
                                <path d="M3.24619636,0.00439228041 C5.03606303,0.00439228041 6.48925091,1.45481228 6.48925091,3.24152229 C6.48925091,5.02900627 5.03606303,6.47923278 3.24619636,6.47923278 C1.44915394,6.47923278 3.8787879e-05,5.02900627 3.8787879e-05,3.24152229 C3.8787879e-05,1.45481228 1.44915394,0.00439228041 3.24619636,0.00439228041 L3.24619636,0.00439228041 Z M0.44416,26.8954035 L6.0451297,26.8954035 L6.0451297,8.93329852 L0.44416,8.93329852 L0.44416,26.8954035 Z" id="Fill-1" fill="#FEFEFE" mask="url(#mask-2)"></path>
                            </g>
                            <g transform="translate(9.503030, 8.509221)">
                                <mask id="mask-4" fill="white">
                                    <use xlink:href="#path-3"></use>
                                </mask>
                                <g id="Clip-5"></g>
                                <path d="M0.0523830303,0.613197174 L5.41597091,0.613197174 L5.41597091,3.06881086 L5.49277091,3.06881086 C6.23885576,1.65670238 8.06460121,0.167390387 10.7867345,0.167390387 C16.4522861,0.167390387 17.4993648,3.88670378 17.4993648,8.7242105 L17.4993648,18.5753021 L11.9044073,18.5753021 L11.9044073,9.8402754 C11.9044073,7.75732833 11.8685285,5.07765029 8.99686788,5.07765029 C6.0854497,5.07765029 5.64113455,7.34789814 5.64113455,9.69128616 L5.64113455,18.5753021 L0.0523830303,18.5753021 L0.0523830303,0.613197174 Z" id="Fill-4" fill="#FEFEFE" mask="url(#mask-4)"></path>
                            </g>
                        </g>
                    </g>
                </g>
            </g>
        </g>
    </g>
</svg>